<svg xmlns="http://www.w3.org/2000/svg" viewBox="0 0 256 256">
  <path
    d="M33.376 14.277C22.209 20.907.209 46.18 0 52.809v10.972c0 13.907 13 26.13 24.803 26.13 14.172 0 25.98-11.745 25.981-25.686 0 13.941 11.404 25.687 25.577 25.687 14.175 0 25.212-11.746 25.212-25.687 0 13.941 12.125 25.687 26.299 25.687h.256c14.175 0 26.3-11.746 26.3-25.687 0 13.941 11.038 25.687 25.21 25.687 14.174 0 25.578-11.746 25.578-25.687 0 13.941 11.81 25.687 25.981 25.687C243 89.912 256 77.69 256 63.78V52.809c-.209-6.629-22.209-31.904-33.374-38.532-34.706-1.219-58.767-1.43-94.627-1.424-35.859.003-84.746.563-94.625 1.424zm68.017 69.085a29.239 29.239 0 01-4.987 6.421c-5.35 5.232-12.683 8.474-20.768 8.474a29.716 29.716 0 01-20.812-8.478c-1.938-1.899-3.411-3.929-4.76-6.293l-.007.004c-1.348 2.369-3.226 4.398-5.168 6.299a29.734 29.734 0 01-20.812 8.471c-.975 0-1.989-.269-2.809-.55-1.14 11.864-1.62 23.203-1.79 31.47l-.002.047c-.021 4.198-.042 7.65-.063 12.447.22 24.893-2.465 80.683 10.976 94.391 20.828 4.857 59.156 7.069 97.607 7.082h.006c38.45-.013 76.777-2.225 97.606-7.082 13.441-13.709 10.757-69.499 10.976-94.392-.023-4.795-.042-8.248-.063-12.447l-.003-.047c-.169-8.27-.65-19.607-1.79-31.472-.82.282-1.832.551-2.808.551a29.734 29.734 0 01-20.812-8.471c-1.942-1.901-3.82-3.93-5.17-6.299l-.005-.004c-1.35 2.364-2.823 4.395-4.761 6.293a29.714 29.714 0 01-20.811 8.477c-8.084 0-15.418-3.245-20.768-8.475a29.239 29.239 0 01-4.987-6.421 29.202 29.202 0 01-4.941 6.421 29.724 29.724 0 01-20.815 8.476c-.281 0-.563-.012-.845-.02H128c-.281.008-.563.02-.848.02a29.724 29.724 0 01-20.814-8.475 29.204 29.204 0 01-4.94-6.421zM80.02 110.999l-.002.01h.016c8.464.018 15.983 0 25.3 10.169 7.332-.77 14.994-1.153 22.663-1.142h.006c7.668-.01 15.33.373 22.664 1.142 9.317-10.17 16.836-10.152 25.3-10.168h.015l-.002-.01c3.999 0 19.996 0 31.143 31.306l11.973 42.948c8.872 31.95-2.841 32.732-17.452 32.76-21.667-.806-33.664-16.542-33.664-32.275-11.994 1.966-25.986 2.949-39.978 2.95h-.006c-13.993 0-27.985-.984-39.978-2.95 0 15.733-11.998 31.469-33.664 32.275-14.611-.028-26.323-.809-17.45-32.76l11.975-42.947C60.026 111 76.023 111 80.022 111zm47.977 24.604v.006c-.021.02-22.81 20.95-26.907 28.393l14.923-.597v13.014c0 .61 5.989.36 11.984.083h.006c5.993.278 11.982.526 11.982-.083v-13.014l14.924.597c-4.098-7.444-26.907-28.393-26.907-28.393v-.006l-.003.002z"
    fill="currentColor" />
</svg>